Coordinates
version=1
nRows=26
nColumns=22
inDegrees=yes

Units are S.I. units (second, meters, Newtons, ...)
If the header above contains a line with 'inDegrees', this indicates whether rotational values are in degrees (yes) or radians (no).

endheader
time	pelvis_tilt	pelvis_list	pelvis_rotation	pelvis_tx	pelvis_ty	pelvis_tz	hip_flexion_r	hip_adduction_r	hip_rotation_r	knee_angle_r	ankle_angle_r	subtalar_angle_r	hip_flexion_l	hip_adduction_l	hip_rotation_l	knee_angle_l	ankle_angle_l	subtalar_angle_l	lumbar_extension	lumbar_bending	lumbar_rotation
      2.64000000	      2.64418447	     -6.16575579	     24.30566514	     -0.13957860	      0.94488700	      0.12891908	     15.29622437	      8.44584071	      1.40265433	    -23.42419542	      9.82198455	      4.92001878	     23.13093619	     -9.84803727	     -8.87106184	    -72.43234337	      1.48626460	     -2.04825874	     -9.00233811	      7.62504370	      1.58282317
      2.65000000	      2.67224641	     -6.00103628	     24.51019060	     -0.13223931	      0.94604673	      0.12529333	     14.40973915	      8.25623644	      1.29724033	    -23.02415388	     10.18621528	      4.88835182	     24.28740227	     -9.85172339	     -9.09674975	    -72.30178698	      1.94863546	     -2.15534351	     -9.04667892	      7.45475000	      1.94158636
      2.66000000	      2.73459355	     -5.80745013	     24.74638952	     -0.12497897	      0.94721773	      0.12151237	     13.45834428	      8.03822978	      1.12810517	    -22.58741659	     10.55438989	      4.81849066	     25.30499170	     -9.78936013	     -9.26443204	    -71.89076936	      2.43408102	     -2.09403767	     -9.14068667	      7.27670336	      2.27635943
      2.67000000	      2.77269439	     -5.63016775	     24.99511139	     -0.11779799	      0.94824456	      0.11764674	     12.53079408	      7.82757718	      0.97540919	    -22.13582599	     10.92112703	      4.73987898	     26.27884815	     -9.70349631	     -9.39283756	    -71.24669349	      2.89199232	     -1.98027888	     -9.20323667	      7.10986361	      2.60050253
      2.68000000	      2.79752693	     -5.47322597	     25.24238973	     -0.11069431	      0.94912620	      0.11375971	     11.63537142	      7.63234857	      0.79118864	    -21.69132864	     11.29195552	      4.65024555	     27.19247054	     -9.61610503	     -9.49382894	    -70.37510770	      3.35263305	     -1.90824971	     -9.25569937	      6.95299683	      2.93520785
      2.69000000	      2.84199296	     -5.31065241	     25.49604419	     -0.10361802	      0.94995148	      0.10983863	     10.69382141	      7.45249268	      0.64302471	    -21.20144854	     11.60395404	      4.48469275	     27.99486691	     -9.52672904	     -9.57709593	    -69.28146350	      3.77678991	     -1.76684510	     -9.33799528	      6.79240342	      3.25765047
      2.70000000	      2.86326473	     -5.18234107	     25.74887284	     -0.09660339	      0.95056099	      0.10591016	      9.81984129	      7.29827043	      0.44599920	    -20.75467424	     11.93476883	      4.29684843	     28.75864012	     -9.45995909	     -9.64250097	    -68.00005738	      4.20926471	     -1.72721593	     -9.39004082	      6.64824005	      3.59585699
      2.71000000	      2.89037454	     -5.06678393	     26.00950532	     -0.08962924	      0.95104873	      0.10195721	      8.93772606	      7.17213022	      0.28180658	    -20.28808676	     12.22427029	      4.01806078	     29.43895616	     -9.40758289	     -9.69051912	    -66.52700584	      4.58632572	     -1.70024332	     -9.44836689	      6.51167968	      3.92421244
      2.72000000	      2.90774234	     -4.97496793	     26.27253973	     -0.08271481	      0.95134976	      0.09798772	      8.09726832	      7.07087373	      0.08928324	    -19.85003183	     12.51587946	      3.69057954	     30.05976092	     -9.36913873	     -9.71741403	    -64.87867689	      4.93308652	     -1.72171026	     -9.49528494	      6.38464878	      4.25040007
      2.73000000	      2.91523827	     -4.90436580	     26.55116720	     -0.07587302	      0.95145927	      0.09396453	      7.29924223	      6.99055194	     -0.11500670	    -19.44771522	     12.81971072	      3.35127941	     30.62245882	     -9.32675238	     -9.70394920	    -63.06316389	      5.25031548	     -1.77107719	     -9.52799672	      6.26833674	      4.57035721
      2.74000000	      2.92178027	     -4.84241720	     26.84133631	     -0.06906713	      0.95142219	      0.08989198	      6.50731948	      6.92652487	     -0.31254992	    -19.04321309	     13.11445113	      2.95463353	     31.10415710	     -9.27930666	     -9.66503890	    -61.07939327	      5.49150322	     -1.81691863	     -9.55868890	      6.15104101	      4.85826704
      2.75000000	      2.93716866	     -4.80410637	     27.14094305	     -0.06230168	      0.95124230	      0.08574221	      5.71896830	      6.90139831	     -0.45634593	    -18.64076578	     13.36641565	      2.39082473	     31.50630790	     -9.24221498	     -9.59940748	    -58.93958657	      5.64056698	     -1.85399093	     -9.58647050	      6.06118291	      5.13136284
      2.76000000	      2.92674180	     -4.77093618	     27.47144102	     -0.05558671	      0.95086264	      0.08146168	      4.99103445	      6.85683382	     -0.69647571	    -18.29937407	     13.69441445	      2.01740723	     31.85224713	     -9.16483886	     -9.49952763	    -56.64782124	      5.75589626	     -1.87054955	     -9.57931880	      5.96301172	      5.34526503
      2.77000000	      2.91565067	     -4.74666741	     27.82827743	     -0.04896598	      0.95032648	      0.07706641	      4.30313559	      6.81847624	     -0.95388874	    -18.02110523	     14.05226986	      1.69203970	     32.12437292	     -9.04040833	     -9.31860714	    -54.21259996	      5.83263933	     -1.87563181	     -9.57022018	      5.87326225	      5.54773829
      2.78000000	      2.92357499	     -4.73078967	     28.20109749	     -0.04233742	      0.94970070	      0.07255627	      3.59044081	      6.79919278	     -1.20685221	    -17.73147295	     14.39106493	      1.33376491	     32.29402139	     -8.92071607	     -9.13085912	    -51.64101706	      5.85465144	     -1.87455474	     -9.56692296	      5.79993059	      5.70635962
      2.79000000	      2.92330026	     -4.73261969	     28.59625984	     -0.03576230	      0.94892409	      0.06793010	      2.91672281	      6.78802523	     -1.48680659	    -17.48477762	     14.74937962	      1.01658401	     32.40509396	     -8.78109091	     -8.90069814	    -48.95261028	      5.87257608	     -1.87457101	     -9.54045921	      5.74136118	      5.83459638
      2.80000000	      2.91699272	     -4.75119251	     29.00740039	     -0.02923523	      0.94801512	      0.06319481	      2.27854205	      6.78405869	     -1.79831124	    -17.27858278	     15.12660716	      0.75808577	     32.45525858	     -8.62522135	     -8.63546038	    -46.15872547	      5.90944437	     -1.87740576	     -9.49458513	      5.69546127	      5.93052929
      2.81000000	      2.90469833	     -4.78048047	     29.43733501	     -0.02274452	      0.94698761	      0.05833995	      1.67399625	      6.78191607	     -2.13661402	    -17.11677339	     15.52233185	      0.55485205	     32.44372215	     -8.45086851	     -8.34039809	    -43.27805741	      5.98866671	     -1.88527864	     -9.42892697	      5.65522832	      5.99754172
      2.82000000	      2.89226032	     -4.81295253	     29.88139417	     -0.01629294	      0.94586938	      0.05337195	      1.09588088	      6.77884975	     -2.49464165	    -17.00257739	     15.93222785	      0.39807466	     32.36285878	     -8.25599630	     -8.01423371	    -40.32924096	      6.11767555	     -1.89897308	     -9.35584603	      5.61662425	      6.04095426
      2.83000000	      2.88986902	     -4.84115948	     30.33296025	     -0.00986529	      0.94469725	      0.04830431	      0.52520141	      6.77925722	     -2.82523113	    -16.92804124	     16.33283235	      0.29105553	     32.20076759	     -8.04709203	     -7.66200415	    -37.33718013	      6.30226279	     -1.92480466	     -9.29068023	      5.57381450	      6.06316632
      2.84000000	      2.83731339	     -4.88375266	     30.79621702	     -0.00348036	      0.94335563	      0.04312889	      0.05566101	      6.75932376	     -3.20941878	    -16.94063270	     16.78132884	      0.23779813	     32.04291484	     -7.81197286	     -7.29091904	    -34.35364186	      6.53772547	     -1.93873838	     -9.15956557	      5.51265455	      6.06136728
      2.85000000	      2.74263080	     -4.93638931	     31.26163722	      0.00290813	      0.94187440	      0.03785204	     -0.34421936	      6.72444568	     -3.60456842	    -17.00747650	     17.25724665	      0.20161091	     31.88791038	     -7.56731809	     -6.93759977	    -31.42607624	      6.82455637	     -1.95347792	     -8.96975541	      5.42825380	      6.04800841
      2.86000000	      2.69091019	     -4.95386465	     31.71893871	      0.00929167	      0.94044227	      0.03249952	     -0.78399556	      6.68463486	     -3.95222322	    -17.11462848	     17.69541212	      0.22578073	     31.62943710	     -7.32793036	     -6.61669250	    -28.58197776	      7.10842713	     -1.98135291	     -8.84881256	      5.32613346	      6.02867757
      2.87000000	      2.59475434	     -4.98172198	     32.16440811	      0.01569857	      0.93887755	      0.02706075	     -1.14723591	      6.62808393	     -4.30077546	    -17.28732267	     18.15605130	      0.25528797	     31.41469606	     -7.10018277	     -6.39263649	    -25.92017126	      7.39825475	     -2.02013038	     -8.67021712	      5.19703396	      6.01654053
      2.88000000	      2.46258029	     -5.01938399	     32.59353584	      0.02213407	      0.93719483	      0.02153442	     -1.43967775	      6.55672084	     -4.64398495	    -17.53017730	     18.63460825	      0.25713042	     31.26300990	     -6.89286737	     -6.31653692	    -23.51824870	      7.67053636	     -2.05798111	     -8.44521989	      5.04545634	      6.01582401
      2.89000000	      2.36731991	     -5.02153405	     33.00121042	      0.02862426	      0.93556876	      0.01589706	     -1.77090747	      6.47137673	     -4.94679230	    -17.81694431	     19.07055194	      0.30799774	     31.08359044	     -6.70799598	     -6.43020579	    -21.41456632	      7.89803842	     -2.12261227	     -8.27847767	      4.87327581	      6.03392187
